<?xml version="1.0" encoding="iso-8859-1"?>
<!-- Uploaded to: SVG Repo, www.svgrepo.com, Generator: SVG Repo Mixer Tools -->
<svg height="800px" width="800px" version="1.1" id="Layer_1" xmlns="http://www.w3.org/2000/svg" xmlns:xlink="http://www.w3.org/1999/xlink" 
	 viewBox="0 0 512 512" xml:space="preserve">
<path style="fill:#7AC0DE;" d="M411.152,465.455h-2.909L362.318,98.065c11.491-1.423,20.39-11.203,20.388-23.079
	c-0.002-12.853-10.423-23.273-23.276-23.271L49.127,51.749c-12.851,0.002-23.27,10.42-23.27,23.273v413.705
	C25.858,501.58,36.278,512,49.13,512h362.021c12.853,0,23.273-10.42,23.273-23.273S424.004,465.455,411.152,465.455z"/>
<path style="fill:#5192C9;" d="M411.152,465.455h-2.909L362.318,98.065c11.491-1.423,20.39-11.203,20.388-23.079
	c-0.002-12.853-10.423-23.273-23.276-23.271l-103.432,0.011V512h155.153c12.853,0,23.273-10.42,23.273-23.273
	S424.004,465.455,411.152,465.455z"/>
<path style="fill:#D5F4FA;" d="M359.424,155.169H152.573c-12.853,0-23.273,10.42-23.273,23.273v206.853
	c0,12.853,10.42,23.273,23.273,23.273h206.851c12.853,0,23.273-10.42,23.273-23.273V178.441
	C382.697,165.589,372.277,155.169,359.424,155.169z M336.151,258.596h-56.879v-56.882h56.879V258.596z M232.727,201.714v56.882
	h-56.882v-56.882H232.727z M175.846,305.141h56.882v56.88h-56.882V305.141z M279.273,362.02v-56.88h56.879v56.88H279.273z
	 M359.424,155.169H255.998v253.398h103.426c12.853,0,23.273-10.42,23.273-23.273V178.441
	C382.697,165.589,372.277,155.169,359.424,155.169z M336.151,362.02h-56.879v-56.88h56.879V362.02z M336.151,258.596h-56.879
	v-56.882h56.879V258.596z"/>
<path style="fill:#C0FCFF;" d="M359.424,155.169H255.998v253.398h103.426c12.853,0,23.273-10.42,23.273-23.273V178.441
	C382.697,165.589,372.277,155.169,359.424,155.169z M336.151,362.02h-56.879v-56.88h56.879V362.02z M336.151,258.596h-56.879
	v-56.882h56.879V258.596z"/>
<path style="fill:#447BA7;" d="M411.152,0c-41.349,0-74.991,33.64-74.991,74.989v362.021c0,41.349,33.642,74.989,74.991,74.989
	s74.991-33.64,74.991-74.989V74.989C486.142,33.64,452.501,0,411.152,0z"/>
<circle style="fill:#5192C9;" cx="411.152" cy="437.015" r="51.712"/>
<path style="fill:#447BA7;" d="M411.152,512c-41.349,0-74.991-33.642-74.991-74.989c0-41.351,33.642-74.992,74.991-74.992
	s74.991,33.642,74.991,74.992C486.142,478.358,452.501,512,411.152,512z M411.152,408.564c-15.684,0-28.445,12.761-28.445,28.447
	c0,15.684,12.761,28.444,28.445,28.444s28.445-12.761,28.445-28.444C439.597,421.325,426.836,408.564,411.152,408.564z"/>
</svg>