<?xml version="1.0" encoding="iso-8859-1"?>
<!-- Uploaded to: SVG Repo, www.svgrepo.com, Generator: SVG Repo Mixer Tools -->
<svg fill="#000000" height="800px" width="800px" version="1.1" id="Layer_1" xmlns="http://www.w3.org/2000/svg" xmlns:xlink="http://www.w3.org/1999/xlink" 
	 viewBox="0 0 512 512" xml:space="preserve">
<g>
	<g>
		<path d="M503.467,315.733H8.533c-4.719,0-8.533,3.814-8.533,8.533v25.6c0,4.719,3.814,8.533,8.533,8.533h494.933
			c4.719,0,8.533-3.814,8.533-8.533v-25.6C512,319.548,508.186,315.733,503.467,315.733z"/>
	</g>
</g>
<g>
	<g>
		<path d="M452.267,153.6H307.2c-4.719,0-8.533,3.814-8.533,8.533v51.2c0,4.719,3.814,8.533,8.533,8.533h145.067
			c4.719,0,8.533-3.814,8.533-8.533v-51.2C460.8,157.414,456.986,153.6,452.267,153.6z"/>
	</g>
</g>
<g>
	<g>
		<path d="M448,273.067H176.239c-2.637,0-4.753-2.389-4.233-4.975c6.289-31.189,33.911-54.758,66.927-54.758h38.4
			c2.355,0,4.267-1.911,4.267-4.267V166.4c0-2.355-1.911-4.267-4.267-4.267h-38.4c-61.688,0-112.614,47.01-118.835,107.085
			c-0.222,2.176-1.997,3.849-4.181,3.849H64c-2.355,0-4.267,1.911-4.267,4.267V294.4c0,2.355,1.911,4.267,4.267,4.267h384
			c2.355,0,4.267-1.911,4.267-4.267v-17.067C452.267,274.978,450.355,273.067,448,273.067z"/>
	</g>
</g>
</svg>