<?xml version="1.0" encoding="iso-8859-1"?>
<!-- Uploaded to: SVG Repo, www.svgrepo.com, Generator: SVG Repo Mixer Tools -->
<svg height="800px" width="800px" version="1.1" id="Layer_1" xmlns="http://www.w3.org/2000/svg" xmlns:xlink="http://www.w3.org/1999/xlink" 
	 viewBox="0 0 512 512" xml:space="preserve">
<path style="fill:#89D2E8;" d="M210.824,361.412c-12.475,0-22.588-10.114-22.588-22.588v-90.353
	c0-11.454,8.573-21.096,19.948-22.435l236.052-27.77v-92.854h-67.765c-12.475,0-22.588-10.114-22.588-22.588
	s10.114-22.588,22.588-22.588h90.353c12.475,0,22.588,10.114,22.588,22.588v135.529c0,11.454-8.573,21.096-19.948,22.435
	l-236.052,27.77v70.266C233.412,351.298,223.298,361.412,210.824,361.412z"/>
<path style="fill:#DA3981;" d="M376.471,0H45.176C32.702,0,22.588,10.114,22.588,22.588v120.471
	c0,12.475,10.114,22.588,22.588,22.588h331.294c12.475,0,22.588-10.114,22.588-22.588V22.588C399.059,10.114,388.945,0,376.471,0z"
	/>
<path style="fill:#B66D38;" d="M256,316.235h-90.353c-12.475,0-22.588,10.114-22.588,22.588v150.588
	c0,12.475,10.114,22.588,22.588,22.588H256c12.475,0,22.588-10.113,22.588-22.588V338.824
	C278.588,326.349,268.475,316.235,256,316.235z"/>
<path style="fill:#A91E62;" d="M376.471,0H210.824v165.647h165.647c12.475,0,22.588-10.114,22.588-22.588V22.588
	C399.059,10.114,388.945,0,376.471,0z"/>
<path style="fill:#AA3827;" d="M256,512c12.475,0,22.588-10.113,22.588-22.588V338.824c0-12.475-10.113-22.588-22.588-22.588
	h-45.176V512H256z"/>
</svg>